<?xml version="1.0" encoding="UTF-8" standalone="no"?><!DOCTYPE svg PUBLIC "-//W3C//DTD SVG 1.1//EN" "http://www.w3.org/Graphics/SVG/1.1/DTD/svg11.dtd"><svg width="100%" height="100%" viewBox="0 0 200 200" version="1.1" xmlns="http://www.w3.org/2000/svg" xmlns:xlink="http://www.w3.org/1999/xlink" xml:space="preserve" style="fill-rule:evenodd;clip-rule:evenodd;stroke-linejoin:round;stroke-miterlimit:1.41421;"><rect id="Artboard1" x="0" y="0" width="200" height="200" style="fill:none;"/><path d="M132.382,95.856c1.376,0.93 2.202,2.483 2.202,4.144c0,1.661 -0.826,3.214 -2.202,4.144c-13.897,9.383 -47.751,32.243 -63.102,42.609c-1.533,1.035 -3.512,1.139 -5.145,0.271c-1.633,-0.867 -2.653,-2.566 -2.653,-4.415c0,-19.774 0,-65.444 0,-85.218c0,-1.849 1.02,-3.548 2.653,-4.415c1.633,-0.868 3.612,-0.764 5.145,0.271c15.351,10.366 49.205,33.226 63.102,42.609Z" style="fill:#666;"/></svg>